<svg width="40" height="40" viewBox="0 0 40 40" fill="none" xmlns="http://www.w3.org/2000/svg">
<rect width="40" height="40" rx="20" fill="#F8F8F8"/>
<path d="M24 24.9998L29 19.9998M29 19.9998L24 14.9998M29 19.9998H17M20 24.9998C20 25.2954 20 25.4432 19.989 25.5712C19.8748 26.9018 18.8949 27.9967 17.585 28.2571C17.459 28.2821 17.312 28.2985 17.0184 28.3311L15.9969 28.4446C14.4625 28.6151 13.6952 28.7003 13.0857 28.5053C12.2729 28.2452 11.6094 27.6513 11.2612 26.8723C11 26.288 11 25.5161 11 23.9721V16.0275C11 14.4836 11 13.7116 11.2612 13.1273C11.6094 12.3483 12.2729 11.7544 13.0857 11.4943C13.6952 11.2993 14.4625 11.3845 15.9969 11.555L17.0183 11.6685C17.3121 11.7012 17.459 11.7175 17.585 11.7425C18.8949 12.003 19.8748 13.0979 19.989 14.4284C20 14.5565 20 14.7042 20 14.9998" stroke="black" stroke-opacity="0.8" stroke-width="1.5" stroke-linecap="round" stroke-linejoin="round"/>
</svg>
